# xmcd
#
# Track frame offsets:
#	150
#	8790
#	24337
#	47045
#	67725
#	89987
#	103852
#	127312
#	149885
#	173202
#	195392
#	218222
#	229772
#	252427
#
# Disc length: 3678 seconds
#
# Revision: 1
# Processed by: cddbd v1.5PL3 Copyright (c) Steve Scherf et al.
# Submitted via: EasyCDDAExtractor 5.0.7
#
DISCID=d10e5c0e
DTITLE=Various Artist - Blues Revue Blues Music Sampler (April - May 2004)
DYEAR=2004
DGENRE=Blues
TTITLE0=Crown Prince Waterford - Time To Blow
TTITLE1=The Holmes Brothers - Run Myself Out Of Town
TTITLE2=Tad Robinson - Dying From The Blues
TTITLE3=The Fins - New York
TTITLE4=Ratso Full Blown Blues Band - Harder By The Minute
TTITLE5=Kenny Neal and Billy Branch - I Just Keep Loving Her
TTITLE6=Governer Davis and The Blues Ambassadors - Goodtime Baby
TTITLE7=Bennie Hughes - You Make It Easy
TTITLE8=Cathy Jean - Bitchovich
TTITLE9=Reggie Wayne Morris - The Blues Is In The House
TTITLE10=Omar and The Howlers - Boogie Man
TTITLE11=Little Rodger and The Cheap Thrills - Moped Momma
TTITLE12=John McVey - I Don't Stutter
TTITLE13=Matt Leddy and The Meat Cutters - T-Bone Shuffle
EXTD=
EXTT0=BillSos 
EXTT1=BillSos 
EXTT2=BillSos 
EXTT3=BillSos 
EXTT4=BillSos 
EXTT5=BillSos 
EXTT6=BillSos 
EXTT7=BillSos 
EXTT8=BillSos 
EXTT9=BillSos 
EXTT10=BillSos 
EXTT11=BillSos 
EXTT12=BillSos 
EXTT13=BillSos 
PLAYORDER=
